<?xml version="1.0" encoding="utf-8"?>
<!-- Generator: Adobe Illustrator 25.0.1, SVG Export Plug-In . SVG Version: 6.00 Build 0)  -->
<svg version="1.1" id="Layer_1" xmlns="http://www.w3.org/2000/svg" xmlns:xlink="http://www.w3.org/1999/xlink" x="0px" y="0px"
	 viewBox="0 0 56.7 64" style="enable-background:new 0 0 56.7 64;" xml:space="preserve">
<style type="text/css">
	.st0{fill:#C4161C;}
</style>
<g>
	<g>
		<path class="st0" d="M55,54.7H17.5c-0.4,0-0.6-0.3-0.6-0.4s-0.2-0.4,0.1-0.7l3.3-3.5h7.3H44h7c1.6,0,3-1.2,3.1-2.8l2.5-23.8
			c0.1-0.9-0.2-1.8-0.8-2.4c-0.3-0.3-0.6-0.5-1-0.7c0-0.2,0-0.4,0-0.6c0-9-3.4-16-7.8-16c-4.4,0-7.8,7-7.8,16c0,0.1,0,0.2,0,0.3
			h-1.9c0.2-2,0.4-3.7,0.3-4.4c0-1-0.4-2-0.9-2.8c1.6-1.5,3.5-5.1,4.3-6.7c0.1-0.3,0.1-0.6,0-0.9s-0.4-0.5-0.7-0.5
			c-1.7-0.4-3.8,0.8-5.2,2c-0.5-3-2.6-6-2.7-6.1c-0.2-0.3-0.6-0.5-1-0.4c-0.4,0.1-0.7,0.4-0.8,0.8l-0.9,5.8l-3.1-2.6
			c-0.3-0.2-0.6-0.3-0.9-0.2C25.4,4,25.1,4.2,25,4.6c-1,3.3,2.4,6.8,3.8,8.1c-0.7,0.9-1.1,2-1,3.1c0,0.7,0.2,2.3,0.5,4.2h-0.4
			l-0.4-1.7c-0.4-1.8-2-3.1-4.1-3.2L20.2,2.8c-0.1-0.5-0.7-0.9-1.2-0.7l-4.1,1c-0.1,0-0.2,0.1-0.4,0.2c-0.1,0.1-0.2,0.2-0.2,0.3
			c0,0,0,0,0,0c0,0,0,0,0,0c-0.1,0.1-0.1,0.2-0.1,0.4c0,0.1,0,0.3,0,0.4l3.1,12.3c-0.9,0.5-1.6,1.3-2,2.3l-5-10.2
			C10,8.5,9.7,8.2,9.3,8.2H1c-0.6,0-1,0.4-1,1s0.4,1,1,1h7.7l5.4,11l4.1,28c0,0,0,0.1,0,0.1l-2.7,2.9c-0.7,0.8-0.8,1.9-0.4,2.9
			s1.4,1.6,2.5,1.6h1.6c-0.5,0.8-0.8,1.7-0.8,2.6c0,2.6,2.1,4.6,4.6,4.6c2.6,0,4.6-2.1,4.6-4.6c0-1-0.3-1.9-0.8-2.6h16.8
			c-0.5,0.8-0.8,1.7-0.8,2.6c0,2.6,2.1,4.6,4.6,4.6c2.6,0,4.6-2.1,4.6-4.6c0-1-0.3-1.9-0.8-2.6H55c0.6,0,1-0.4,1-1
			S55.6,54.7,55,54.7z M43.1,48.1H28.4l-0.5-7h15.5L43.1,48.1z M43.6,39.1H27.8L27.2,31H44L43.6,39.1z M52.2,47.1
			c-0.1,0.6-0.6,1-1.1,1h-6l0.4-7h7.4L52.2,47.1z M53,39.1h-7.5L46,31h7.9L53,39.1z M54.4,22.4c0.2,0.2,0.3,0.6,0.3,0.9L54.1,29h-8
			l0.4-7h7.1C53.9,22,54.2,22.1,54.4,22.4z M47.1,5.7c2.7,0,5.8,5.8,5.8,14c0,0.1,0,0.2,0,0.3h-7.4h-4.1c0-0.1,0-0.2,0-0.3
			C41.3,11.4,44.4,5.7,47.1,5.7z M27.1,7.1l2.7,2.3c0.3,0.2,0.7,0.3,1,0.2c0.3-0.1,0.6-0.4,0.6-0.8l0.8-4.8c0.7,1.5,1.3,3.2,1.1,4.6
			c-0.1,0.4,0.1,0.9,0.5,1.1c0.4,0.2,0.9,0.1,1.2-0.2c0.9-0.9,2.2-2,3.4-2.5c-1.2,2.2-2.4,4-3,4.5c-0.8-0.5-1.8-0.8-2.7-0.7
			c-0.8,0-1.6,0.3-2.3,0.7C29.3,10.5,27.7,8.8,27.1,7.1z M35.4,20h-5.2c-0.3-1.8-0.5-3.4-0.5-4.2c0-1.7,1.3-3.1,3-3.1c0,0,0,0,0.1,0
			c1.6,0,3,1.3,3,3C35.8,16.4,35.7,18.1,35.4,20z M44.4,22l-0.4,7h-17l-0.5-7H44.4z M26.4,48.1H20l-1-7h7L26.4,48.1z M18.5,4.3
			l0.8,3.4l-2.2,0.6l-0.8-3.4L18.5,4.3z M18.6,18.2c0.5-0.1,0.9-0.7,0.7-1.2l-1.7-6.9l2.2-0.6l1.7,6.9c0.1,0.5,0.7,0.9,1.2,0.7
			c1.2-0.3,2.4,0.4,2.7,1.6v0l0.3,1.1l-0.1,0h-0.1H17C17.1,19.1,17.7,18.4,18.6,18.2z M16.2,22h8.3l0.5,7h-7.9
			C17.2,28.7,16.2,21.5,16.2,22z M17.5,31h7.7l0.6,8.1h-7.1L17.5,31z M22.9,62c-1.5,0-2.6-1.2-2.6-2.6s1.2-2.6,2.6-2.6
			s2.6,1.2,2.6,2.6S24.3,62,22.9,62z M47.3,62c-1.5,0-2.6-1.2-2.6-2.6s1.2-2.6,2.6-2.6s2.6,1.2,2.6,2.6S48.8,62,47.3,62z"/>
		<path class="st0" d="M45.4,13.3h3.4c0.6,0,1-0.4,1-1s-0.4-1-1-1h-3.4c-0.6,0-1,0.4-1,1S44.9,13.3,45.4,13.3z"/>
		<path class="st0" d="M45.4,19h3.4c0.6,0,1-0.4,1-1s-0.4-1-1-1h-3.4c-0.6,0-1,0.4-1,1S44.9,19,45.4,19z"/>
	</g>
</g>
</svg>
