<?xml version="1.0" encoding="utf-8"?>
<!-- Generator: Adobe Illustrator 25.0.1, SVG Export Plug-In . SVG Version: 6.00 Build 0)  -->
<svg version="1.1" id="Layer_1" xmlns="http://www.w3.org/2000/svg" xmlns:xlink="http://www.w3.org/1999/xlink" x="0px" y="0px"
	 viewBox="0 0 64 61.4" style="enable-background:new 0 0 64 61.4;" xml:space="preserve">
<style type="text/css">
	.st0{fill:#C4161C;}
</style>
<g>
	<path class="st0" d="M57.2,4.8c-0.2-0.2-0.5-0.3-0.8-0.3H38.9c-1.3,0-2.3,1-2.3,2.3v1c0,0.9,0.5,1.7,1.3,2.1l2.4,1.2
		c0.1,1.7-0.7,3.1-2.3,4.1c-0.5,0.3-0.6,0.9-0.3,1.4c0.3,0.5,0.9,0.6,1.4,0.3c1.9-1.3,3-2.9,3.2-4.9l3.3,1.6v2.6h-0.8
		c-1.1,0-2,0.9-2,2v3.6c0,1,0.7,1.8,1.7,2v2.7c0,2-0.3,4-1,5.8c-1.1,3-2.4,4.4-3.5,5.8c-0.6-1.3-1.4-2.6-2.4-3.6
		c-1.5-1.4-3.2-2.4-5.2-2.9c0.3-0.5,0.5-1.1,0.5-1.7c0-1.5-1-2.7-2.3-3.1v-2.1h2.6v-2h-6c-1,0-2,0.4-2.7,1.2l-2.2,2.4l1.5,1.3
		l2.2-2.4c0.3-0.4,0.8-0.6,1.3-0.6h1.3v2.1c-1.3,0.4-2.3,1.7-2.3,3.1c0,0.6,0.2,1.2,0.5,1.7c-1.8,0.5-3.4,1.4-4.8,2.6
		c-0.3-1.4-1.5-2.4-2.9-2.4c0-14.4,0-9.4,0-10.5c0-2.8-2.3-5.1-5.1-5.1H8.1c-2.8,0-5.1,2.3-5.1,5.1c0,1.1,0-3.9,0,10.5
		c-1.7,0-3,1.3-3,3C0,39,0,50.2,0,54.2v2v2.2c0,1.7,1.3,3,3,3h16c0.6,0,1.1-0.2,1.6-0.5c0.6,0.3,1.2,0.5,1.9,0.5h14.2
		c0.8,0,1.5-0.2,2.1-0.6c0.5,0.4,1.1,0.6,1.7,0.6h17.1c1.7,0,3-1.3,3-3V44.1c0-8-4.9-9.2-4.9-16.6v-3.7c1-0.1,1.7-1,1.7-2v-3.6
		c0-1.1-0.9-2-2-2h-1.1V14H63c0,0,0,0,0,0c0.6,0,1-0.4,1-1c0-0.3-0.1-0.6-0.4-0.8L57.2,4.8z M29.6,28.7c0.7,0,1.3,0.6,1.3,1.3
		s-0.6,1.3-1.3,1.3s-1.3-0.6-1.3-1.3S28.9,28.7,29.6,28.7z M5,21.3c0-1.7,1.4-3.1,3.1-3.1h5.8c1.7,0,3.1,1.4,3.1,3.1v7h-2.5v-5.6
		H7.7v5.6H5V21.3z M12.5,28.3H9.7v-3.6h2.8V28.3z M5,30.3c4.4,0,7.5,0,12,0v1.5H5C5,31.8,5,30.3,5,30.3z M2,34.8c0-0.6,0.4-1,1-1h16
		c0.6,0,1,0.4,1,1v1.8V37H2C2,37,2,34.8,2,34.8z M2,39h18v15.2H2C2,54.2,2,39,2,39z M3,59.4c-0.6,0-1-0.4-1-1v-2.2h18v2.2
		c0,0.3-0.1,0.5-0.3,0.7l0,0c-0.2,0.2-0.5,0.3-0.7,0.3H3z M36.7,59.4H22.5c-0.2,0-0.4,0-0.6-0.1c0-0.1,0-0.2,0.1-0.3
		c0-0.1,0-0.1,0-0.2c0-0.2,0-0.3,0-0.5v-2.2v-2c0-6.7,0-14.2,0-17c1.8-2.5,4.6-3.9,7.6-3.9c2.5,0,4.8,1,6.6,2.7
		c1.3,1.3,2.1,2.8,2.5,4.5C38,42,37.5,44,37.5,45.9v12.5c0,0.3,0,0.5,0.1,0.7c0,0,0,0,0,0.1C37.3,59.3,37,59.4,36.7,59.4z
		 M58.6,44.1v14.3c0,0.6-0.4,1-1,1H40.5c-0.3,0-0.6-0.2-0.8-0.4c-0.1-0.2-0.2-0.4-0.2-0.6V45.9c0-7.6,7-8.4,7-19.3v-2.7h7.2v3.7
		C53.8,35.7,58.6,36.7,58.6,44.1z M55.5,21.9H44.8v-3.6c6.4,0,6.9,0,10.7,0L55.5,21.9z M53.4,12c-0.6,0-1,0.4-1,1v3.2h-4.8V13
		c0-0.4-0.2-0.7-0.6-0.9l-8.3-4c-0.1-0.1-0.2-0.2-0.2-0.3v-1c0-0.2,0.2-0.3,0.3-0.3h17l4.8,5.6H53.4z"/>
	<rect x="40.9" y="47.9" class="st0" width="2" height="8.5"/>
	<rect x="25.5" y="44" class="st0" width="8.1" height="2"/>
	<rect x="22.9" y="48.7" class="st0" width="13.4" height="2"/>
	<rect x="22.9" y="53.4" class="st0" width="13.4" height="2"/>
	<path class="st0" d="M6.1,0.8c0,0.1-0.5,3.6-3,3.6v2c2.5,0,3,3.5,3,3.6l0,0l2,0c0-0.1,0.5-3.6,3-3.6v-2c-2.5,0-3-3.5-3-3.6L6.1,0.8
		z M7.1,6.9c-0.3-0.5-0.7-1-1.2-1.5C6.4,5,6.8,4.5,7.1,4c0.3,0.5,0.7,1,1.2,1.5C7.8,5.8,7.4,6.3,7.1,6.9z"/>
	<path class="st0" d="M28.5,3.6c-2.5,0-3-3.5-3-3.6l-2,0c0,0.1-0.5,3.6-3,3.6v2c2.5,0,3,3.5,3,3.6l0,0l2,0c0-0.1,0.5-3.6,3-3.6V3.6z
		 M24.5,6.1c-0.3-0.5-0.7-1-1.2-1.5c0.5-0.4,0.9-0.9,1.2-1.5c0.3,0.5,0.7,1,1.2,1.5C25.2,5,24.8,5.5,24.5,6.1z"/>
	<path class="st0" d="M30.9,10.3c0,0.1-0.5,3.6-3,3.6v2c2.5,0,3,3.5,3,3.6l0,0l2,0c0-0.1,0.5-3.6,3-3.6v-2c-2.5,0-3-3.5-3-3.6
		L30.9,10.3z M31.9,16.3c-0.3-0.5-0.7-1-1.2-1.5c0.5-0.4,0.9-0.9,1.2-1.5c0.3,0.5,0.7,1,1.2,1.5C32.6,15.3,32.2,15.8,31.9,16.3z"/>
</g>
</svg>
