<?xml version="1.0" encoding="utf-8"?>
<!-- Generator: Adobe Illustrator 25.0.1, SVG Export Plug-In . SVG Version: 6.00 Build 0)  -->
<svg version="1.1" id="Layer_1" xmlns="http://www.w3.org/2000/svg" xmlns:xlink="http://www.w3.org/1999/xlink" x="0px" y="0px"
	 viewBox="0 0 45.3 48" style="enable-background:new 0 0 45.3 48;" xml:space="preserve">
<style type="text/css">
	.st0{fill:#C4161C;}
</style>
<g>
	<path class="st0" d="M22.7,37.9c-0.6-1.4-2.2-2.1-3.6-1.6l-7.9,3.1c-1.4,0.6-2.1,2.2-1.6,3.6c0.4,1.1,1.4,1.8,2.6,1.8
		c0.4,0,0.7-0.1,1-0.2l7.9-3.1C22.6,40.9,23.2,39.3,22.7,37.9z M12.6,43.3c-0.7,0.3-1.4-0.1-1.7-0.7c-0.1-0.3-0.1-0.7,0-1
		c0.1-0.3,0.4-0.6,0.7-0.7l3.3-1.3l0.9,2.4L12.6,43.3z M20.6,40.1l-3.3,1.3L16.4,39l3.3-1.3c0.7-0.3,1.4,0.1,1.7,0.7
		C21.5,39.1,21.2,39.9,20.6,40.1z"/>
	<path class="st0" d="M33.8,37.3l-3.4-2.6l0,0l-3.4-2.6c-1.2-0.9-3-0.7-3.9,0.5c0,0,0,0,0,0c-0.9,1.2-0.7,3,0.5,3.9l6.7,5.2
		c1.2,0.9,3,0.7,3.9-0.5S35.1,38.3,33.8,37.3L33.8,37.3z M24.4,33.5c0.2-0.3,0.5-0.4,0.8-0.5c0.1,0,0.1,0,0.2,0
		c0.3,0,0.6,0.1,0.8,0.3l2.8,2.2l-1.6,2l-2.8-2.2C24,34.9,23.9,34.1,24.4,33.5L24.4,33.5z M33.1,40.3c-0.4,0.6-1.2,0.7-1.8,0.2
		c0,0,0,0,0,0l-2.8-2.2l1.6-2l2.8,2.2C33.5,38.9,33.6,39.7,33.1,40.3L33.1,40.3z"/>
	<path class="st0" d="M31,42.4h-8.5c-1.5,0-2.8,1.3-2.7,2.8c0,1.5,1.2,2.7,2.7,2.7H31c1.5,0,2.8-1.2,2.8-2.7c0-1.5-1.2-2.8-2.7-2.8
		C31.1,42.4,31,42.4,31,42.4z M21.2,45.2c0-0.7,0.6-1.3,1.3-1.3H26v2.6h-3.5C21.8,46.5,21.2,45.9,21.2,45.2z M31,46.5h-3.5v-2.6H31
		c0.7,0,1.3,0.5,1.3,1.2C32.3,45.9,31.8,46.5,31,46.5C31.1,46.5,31,46.5,31,46.5z"/>
	<path class="st0" d="M44.2,40.6c-1.6-1.8-4.4-2-6.3-0.4c-1.8,1.6-2,4.4-0.4,6.3c0.8,0.9,1.9,1.4,3.1,1.5c0.1,0,0.2,0,0.3,0
		c2.5,0,4.5-2,4.5-4.5C45.3,42.5,44.9,41.4,44.2,40.6L44.2,40.6z M38.9,41.3c1-0.9,2.5-1,3.6-0.2l-4.3,3.8
		C37.6,43.7,37.9,42.2,38.9,41.3z M42.8,45.8c-1,0.9-2.5,1-3.6,0.2l4.3-3.8C44.1,43.4,43.8,44.9,42.8,45.8L42.8,45.8z"/>
	<path class="st0" d="M38.6,38c2.4-0.3,4.2-2.5,4-4.9c-0.3-2.4-2.5-4.2-4.9-4c-2.4,0.3-4.2,2.5-4,4.9l0,0c0.2,2.3,2.1,4,4.4,4
		C38.2,38,38.4,38,38.6,38z M35.8,31.7c0.5-0.6,1.2-1,2-1.1c0.1,0,0.2,0,0.3,0c1.2,0,2.3,0.8,2.8,1.9l-5.7,0.6
		C35.2,32.6,35.4,32.1,35.8,31.7z M36.2,35.9c-0.4-0.3-0.7-0.8-0.9-1.3L41,34c-0.2,1.6-1.7,2.7-3.3,2.5
		C37.1,36.4,36.6,36.2,36.2,35.9L36.2,35.9z"/>
	<path class="st0" d="M23.4,41.8c1,0,2-0.3,2.8-0.9c0.3-0.2,0.4-0.7,0.2-1s-0.7-0.4-1-0.2c0,0,0,0,0,0c-0.6,0.4-1.2,0.6-1.9,0.6
		c-0.4,0-0.8,0.3-0.8,0.8S23,41.8,23.4,41.8z"/>
	<path class="st0" d="M7.8,40.3h-3c-1.8,0-3.3-1.5-3.3-3.3v-1.8h19.7c0.4,0,0.8-0.3,0.8-0.8s-0.3-0.8-0.8-0.8H1.5V18.4h3.4
		c0.4,0,0.8-0.3,0.8-0.8s-0.3-0.8-0.8-0.8H1.5v-3.4c0-1.8,1.5-3.3,3.3-3.3h18.6c1.8,0,3.3,1.5,3.3,3.3v3.4H7.4
		c-0.4,0-0.8,0.3-0.8,0.8s0.3,0.8,0.8,0.8h19.3v11.9c0,0.4,0.3,0.8,0.8,0.8s0.8-0.3,0.8-0.8V13.5c0-2.7-2.2-4.8-4.8-4.8h-2.7V6.3
		h3.7c0.4,0,0.8-0.3,0.8-0.8V0.8c0-0.4-0.3-0.8-0.8-0.8H3.8C3.4,0,3.1,0.3,3.1,0.8v4.8c0,0.4,0.3,0.8,0.8,0.8h3.7v2.4H4.8
		C2.2,8.7,0,10.9,0,13.5v23.4c0,2.7,2.2,4.8,4.8,4.8h3c0.4,0,0.8-0.3,0.8-0.8S8.3,40.3,7.8,40.3z M9,6.3h7.2C16.6,6.3,17,6,17,5.6
		s-0.3-0.8-0.8-0.8H4.6V1.5h19.1v3.3h-4.9c-0.4,0-0.8,0.3-0.8,0.8s0.3,0.8,0.8,0.8h0.5v2.4H9L9,6.3z"/>
	<path class="st0" d="M16,31.3h-3.7c-0.4,0-0.8-0.3-0.8-0.8v-2h-2c-0.4,0-0.8-0.3-0.8-0.8v-3.7c0-0.4,0.3-0.8,0.8-0.8h2v-2
		c0-0.4,0.3-0.8,0.8-0.8H16c0.4,0,0.8,0.3,0.8,0.8v2h2c0.4,0,0.8,0.3,0.8,0.8v3.7c0,0.4-0.3,0.8-0.8,0.8h-2v2
		C16.7,30.9,16.4,31.3,16,31.3z M13,29.8h2.2v-2c0-0.4,0.3-0.8,0.8-0.8h2v-2.2h-2c-0.4,0-0.8-0.3-0.8-0.8v-2H13v2
		c0,0.4-0.3,0.8-0.8,0.8h-2v2.2h2c0.4,0,0.8,0.3,0.8,0.8V29.8z"/>
</g>
</svg>
