<?xml version="1.0" encoding="utf-8"?>
<!-- Generator: Adobe Illustrator 25.0.1, SVG Export Plug-In . SVG Version: 6.00 Build 0)  -->
<svg version="1.1" id="Layer_1" xmlns="http://www.w3.org/2000/svg" xmlns:xlink="http://www.w3.org/1999/xlink" x="0px" y="0px"
	 viewBox="0 0 30 30" style="enable-background:new 0 0 30 30;" xml:space="preserve">
<style type="text/css">
	.st0{fill:#C4161C;}
</style>
<path class="st0" d="M29.9,24.3c-0.3-0.5-0.7-1-1.1-1.3c0.1-0.6,0.2-1.2,0.2-1.9c0-3-5.1-9.7-7-12.1h1.5C23.8,9,24,8.8,24,8.5
	S23.8,8,23.5,8h-1.1c1.7-1.4,4.6-4,4.8-5.7c0-0.4-0.1-0.8-0.3-1.1c-1-1.1-3.8,0.6-5.3,1.6C20.8,1.7,19.4,0,18.5,0s-2.3,1.7-3.1,2.8
	c-1.5-1.1-4.2-2.8-5.3-1.6C9.9,1.5,9.8,1.8,9.8,2.3C10,4,12.9,6.6,14.6,8h-1.1C13.2,8,13,8.2,13,8.5S13.2,9,13.5,9h1.4
	c-1.5,1.8-5.1,6.3-6.3,9.1l-1.3-0.3c0.1-0.5,0.1-0.9,0.2-1.3c0-0.2,0-0.3-0.2-0.4c-1.1-1-5.9-1.1-6.8-1.1c-0.1,0-0.3,0.1-0.4,0.1
	C0.1,15.2,0,15.4,0,15.5v12C0,27.8,0.2,28,0.5,28h4c0.2,0,0.4-0.1,0.5-0.4c0-0.1,0.2-0.5,0.3-1.2l8.9,3c1,0.4,1.8,0.6,2.6,0.6
	c1.3,0,2.7-0.6,6-1.9l6.9-3.2c0.1-0.1,0.2-0.2,0.3-0.3C30,24.5,30,24.4,29.9,24.3z M10.8,2.2c0-0.2,0-0.3,0.1-0.3
	c0.3-0.3,2.3,0.5,4.3,2.1C15.3,4,15.4,4,15.6,4c0.1,0,0.3-0.1,0.3-0.2c1-1.4,2.2-2.7,2.6-2.8c0.4,0,1.6,1.4,2.6,2.8
	C21.2,3.9,21.3,4,21.4,4c0.1,0,0.3,0,0.4-0.1c2-1.5,4-2.4,4.3-2.1c0,0.1,0.1,0.1,0.1,0.3c-0.1,1.4-3.3,4.3-5.4,5.8h-4.7
	C14.1,6.4,10.9,3.5,10.8,2.2z M16.2,9h4.5c2.2,2.6,7.3,9.4,7.3,12.1c0,0.4,0,0.9-0.1,1.3c-0.8-0.3-1.7-0.4-2.5-0.2l-4.2,1.1
	c-0.1-0.8-0.3-1.4-0.8-1.9c0.4-0.4,0.6-1,0.6-1.5c0-1.1-0.7-1.8-2-2.2v-2.6c0.6,0.2,1,0.6,1,1.1c0,0.3,0.3,0.5,0.5,0.5
	c0.3,0,0.5-0.3,0.5-0.5c-0.1-1-0.9-1.9-2-2.1v-0.5c0-0.3-0.2-0.5-0.5-0.5S18,13.2,18,13.5V14c-1.1,0.2-2,1.1-2,2.2
	c0,1.1,0.7,1.8,2,2.2v1.7l-8.4-1.9C11,15.2,15.4,10,16.2,9z M18,17.4c-0.7-0.2-1-0.6-1-1.1c0-0.6,0.4-1,1-1.2V17.4z M19,18.7
	c0.7,0.2,1,0.6,1,1.1c0,0.3-0.1,0.6-0.4,0.8c0,0,0,0.1-0.1,0.1c-0.2-0.1-0.4-0.2-0.6-0.3V18.7z M1,27V16c2,0.1,4.6,0.3,5.5,0.7
	C6.2,19,5.2,23,4.6,25.4c0,0.1-0.1,0.1-0.1,0.2c0,0.1,0,0.2,0,0.3c-0.1,0.5-0.2,0.9-0.3,1.1C4.1,27,1,27,1,27z M22.4,27.2
	c-5.2,2.1-5.5,2.1-7.8,1.2l-8.9-3c0.5-1.8,1.2-4.5,1.6-6.7L18,21.2c1.5,0.4,2.1,1,2.1,2.3l-1.3,0.3c-0.5,0.1-1,0.1-1.4,0l-5.5-1.1
	c-0.3-0.1-0.5,0.1-0.6,0.4c-0.1,0.3,0.1,0.5,0.4,0.6l5.5,1.1c0.3,0.1,0.6,0.1,0.8,0.1c0.4,0,0.7,0,1-0.1l1.7-0.4c0,0,0,0,0,0
	l4.8-1.2c1.2-0.3,2.4,0.2,3.2,1.1L22.4,27.2z"/>
</svg>
